# xmcd
# Copyright (C) 1995-1998 Ti Kan
#
# Track frame offsets:
#       150
#       16622
#       32472
#       46504
#
# Disc length: 812 seconds
#
# Revision: 0
# Processed by: cddbd v1.4PL0 Copyright (c) Steve Scherf et al.
# Submitted via: CD-Transfer v1.0
#
DISCID=18032a04
DTITLE=Biggles - Biggles
DYEAR=2003
DGENRE=
TTITLE0=Golden Age
TTITLE1=Weather Girl
TTITLE2=Satellite
TTITLE3=Nicotine Teen
EXTD=
EXTT0=
EXTT1=
EXTT2=
EXTT3=
PLAYORDER=
